<svg width="100" height="100" viewBox="0 0 100 100" fill="none" xmlns="http://www.w3.org/2000/svg">
<g clip-path="url(#clip0_93_712)">
<circle cx="50" cy="50" r="47" stroke="#06A4FF" stroke-width="6"/>
<mask id="path-2-inside-1_93_712" fill="white">
<path fill-rule="evenodd" clip-rule="evenodd" d="M12.5 83.0727V81.2499C12.5 68.7812 37.4844 62.4999 50 62.4999C62.5156 62.4999 87.5 68.7812 87.5 81.2499V83.0727C78.3382 93.453 64.9337 99.9999 50 99.9999C35.0663 99.9999 21.6618 93.453 12.5 83.0727ZM50 20.8334C39.6406 20.8334 31.25 29.224 31.25 39.5834C31.25 49.9427 39.6406 58.3334 50 58.3334C60.3594 58.3334 68.75 49.9427 68.75 39.5834C68.75 29.224 60.3594 20.8334 50 20.8334Z"/>
</mask>
<path fill-rule="evenodd" clip-rule="evenodd" d="M12.5 83.0727V81.2499C12.5 68.7812 37.4844 62.4999 50 62.4999C62.5156 62.4999 87.5 68.7812 87.5 81.2499V83.0727C78.3382 93.453 64.9337 99.9999 50 99.9999C35.0663 99.9999 21.6618 93.453 12.5 83.0727ZM50 20.8334C39.6406 20.8334 31.25 29.224 31.25 39.5834C31.25 49.9427 39.6406 58.3334 50 58.3334C60.3594 58.3334 68.75 49.9427 68.75 39.5834C68.75 29.224 60.3594 20.8334 50 20.8334Z" fill="#070707"/>
<path d="M12.5 83.0727H7.5V84.9637L8.7513 86.3814L12.5 83.0727ZM87.5 83.0727L91.2487 86.3814L92.5 84.9637V83.0727H87.5ZM12.5 83.0727H17.5V81.2499H12.5H7.5V83.0727H12.5ZM12.5 81.2499H17.5C17.5 79.9692 18.1019 78.4773 19.9905 76.7342C21.9131 74.9598 24.8159 73.2828 28.416 71.8405C35.6243 68.9529 44.3672 67.4999 50 67.4999V62.4999V57.4999C43.1171 57.4999 33.1101 59.1875 24.6973 62.5577C20.4869 64.2444 16.3613 66.4756 13.2082 69.3857C10.0212 72.3272 7.5 76.2963 7.5 81.2499H12.5ZM50 62.4999V67.4999C55.6328 67.4999 64.3757 68.9529 71.584 71.8405C75.1841 73.2828 78.0869 74.9598 80.0095 76.7342C81.8981 78.4773 82.5 79.9692 82.5 81.2499H87.5H92.5C92.5 76.2963 89.9788 72.3272 86.7918 69.3857C83.6387 66.4756 79.5131 64.2444 75.3027 62.5577C66.8899 59.1875 56.8829 57.4999 50 57.4999V62.4999ZM87.5 81.2499H82.5V83.0727H87.5H92.5V81.2499H87.5ZM87.5 83.0727L83.7513 79.7641C75.4984 89.1146 63.4396 94.9999 50 94.9999V99.9999V105C66.4277 105 81.178 97.7914 91.2487 86.3814L87.5 83.0727ZM50 99.9999V94.9999C36.5604 94.9999 24.5016 89.1146 16.2487 79.7641L12.5 83.0727L8.7513 86.3814C18.822 97.7914 33.5723 105 50 105V99.9999ZM31.25 39.5834H36.25C36.25 31.9854 42.402 25.8334 50 25.8334V20.8334V15.8334C36.8792 15.8334 26.25 26.4626 26.25 39.5834H31.25ZM50 58.3334V53.3334C42.402 53.3334 36.25 47.1813 36.25 39.5834H31.25H26.25C26.25 52.7042 36.8792 63.3334 50 63.3334V58.3334ZM68.75 39.5834H63.75C63.75 47.1813 57.5979 53.3334 50 53.3334V58.3334V63.3334C63.1208 63.3334 73.75 52.7042 73.75 39.5834H68.75ZM50 20.8334V25.8334C57.5979 25.8334 63.75 31.9854 63.75 39.5834H68.75H73.75C73.75 26.4626 63.1208 15.8334 50 15.8334V20.8334Z" fill="#06A4FF" mask="url(#path-2-inside-1_93_712)"/>
</g>
<defs>
<clipPath id="clip0_93_712">
<rect width="100" height="100" fill="white"/>
</clipPath>
</defs>
</svg>
