<svg width="131" height="134" viewBox="0 0 131 134" fill="none" xmlns="http://www.w3.org/2000/svg">
<path d="M102.507 61.6267C102.468 62.3724 102.304 63.0808 102.035 63.7297L101.873 64.0908L101.456 65.0214L101.08 65.8613L94.5381 80.4586L94.4984 80.5455L94.4912 80.5629C94.4095 80.7676 94.3591 80.9885 94.3472 81.2218C94.3447 81.2577 94.3447 81.2925 94.3447 81.3284V89.5918H94.3435C94.3435 89.6762 94.3424 89.7617 94.3376 89.8473C94.3243 90.098 94.2931 90.3437 94.2439 90.5819C93.9317 92.1055 92.916 93.3462 91.5785 93.9567C90.9277 94.2533 90.1989 94.4009 89.4402 94.3587C88.829 94.3252 88.2515 94.1713 87.728 93.922C86.5598 93.3661 85.6617 92.33 85.2583 91.0757C85.1287 90.67 85.0506 90.2406 85.0326 89.7965V80.9587C85.0326 80.6746 85.0398 80.3892 85.0542 80.1013C85.0818 79.5641 85.1346 79.0356 85.2127 78.5144C85.4205 77.1186 85.8035 75.7861 86.3365 74.5391L86.5502 74.0652L89.8675 66.6629L89.8652 66.6617C89.9564 66.4656 90.0116 66.2473 90.0237 66.0165C90.0705 65.1194 89.4414 64.3451 88.5925 64.2124L88.5085 64.2012H88.5072L87.9885 64.133L55.8836 59.8983L49.3041 59.031L49.2285 59.0212C46.2161 58.6093 43.8952 56.1116 43.6023 53.0532C43.5146 52.0953 43.4702 51.125 43.4702 50.1462C43.4702 33.086 56.8537 19.2566 73.3624 19.2566C87.1397 19.2566 98.7403 28.8885 102.201 41.992C102.272 42.265 102.341 42.5391 102.406 42.8146C102.451 43.0888 102.475 43.3717 102.475 43.6608C102.475 46.4264 100.306 48.6697 97.6284 48.6697C95.3821 48.6697 93.4911 47.0877 92.9423 44.9437C92.9292 44.8854 92.9148 44.827 92.9004 44.77C90.708 35.7747 82.8258 29.1155 73.4417 29.1155C63.3755 29.1155 55.0396 36.7759 53.5976 46.7651C53.588 46.8246 53.5796 46.8843 53.5712 46.945C53.5664 46.9848 53.5604 47.0244 53.5556 47.0654C53.552 47.1038 53.5495 47.1423 53.5472 47.1807C53.4895 48.3012 54.2147 49.2776 55.2328 49.5556L55.8284 49.6337L56.0421 49.6622L92.9952 54.5359L97.1674 55.0855L97.2203 55.093C99.4186 55.392 101.224 56.8809 102.042 58.8785C102.387 59.7209 102.556 60.654 102.507 61.6267Z" fill="#06A4FF"/>
<path d="M75.2606 13.4261C75.2522 13.5948 75.1118 13.7251 74.9473 13.7152C74.3782 13.6904 73.8055 13.678 73.2303 13.678C51.0438 13.678 33.0571 32.2655 33.0571 55.1931C33.0571 72.5598 43.3741 87.4363 58.0219 93.6313C58.1324 93.6809 58.2068 93.7963 58.1984 93.9266C58.19 94.0953 58.0495 94.2256 57.8851 94.2157C57.8755 94.2157 57.8659 94.2145 57.8563 94.2132H57.855C57.8394 94.2094 57.8238 94.2058 57.8082 94.2021C57.8058 94.2008 57.8022 94.1995 57.7986 94.1983C40.2477 89.7527 27.2269 73.3874 27.2269 53.8792C27.2269 30.9516 45.2136 12.364 67.4 12.364C70.0007 12.364 72.5447 12.6208 75.0073 13.1085C75.1513 13.1296 75.2606 13.2748 75.2606 13.4261Z" fill="#FFD429"/>
<path d="M66.9666 105.247C65.766 105.247 64.6374 104.48 64.2028 103.247C63.6468 101.67 64.4345 99.9255 65.9606 99.3523L79.5985 94.2231C81.1245 93.6486 82.8126 94.4625 83.3673 96.0395C83.9232 97.6164 83.1356 99.361 81.6096 99.9342L67.9716 105.063C67.6402 105.189 67.3004 105.247 66.9666 105.247Z" fill="white"/>
<path d="M74.0359 121.637C72.8353 121.637 71.7067 120.87 71.2721 119.637C70.7163 118.061 71.5039 116.315 73.0299 115.742L86.6678 110.613C88.1938 110.039 89.8819 110.853 90.4366 112.429C90.9926 114.007 90.205 115.751 88.6789 116.324L75.0409 121.453C74.7095 121.578 74.3697 121.637 74.0359 121.637Z" fill="white"/>
<path d="M68.4829 114.189C67.2822 114.189 66.1536 113.422 65.719 112.189C65.1631 110.612 65.9508 108.868 67.4767 108.294L88.2165 100.494C89.7426 99.9195 91.4307 100.733 91.9854 102.31C92.5412 103.887 91.7536 105.632 90.2276 106.205L69.4878 114.005C69.1564 114.13 68.8166 114.189 68.4829 114.189Z" fill="white"/>
</svg>
