<svg width="51" height="51" viewBox="0 0 51 51" fill="none" xmlns="http://www.w3.org/2000/svg">
<path d="M25.3706 47.3443H25.2737C13.1576 47.3443 3.30005 37.4868 3.30005 25.3707V25.2738C3.30005 13.1576 13.1576 3.30005 25.2737 3.30005H25.3706C37.4868 3.30005 47.3443 13.1576 47.3443 25.2738V25.3707C47.3443 37.4868 37.4868 47.3443 25.3706 47.3443ZM25.2737 4.7909C13.979 4.7909 4.7909 13.9791 4.7909 25.2738V25.3707C4.7909 36.6654 13.979 45.8535 25.2737 45.8535H25.3706C36.6654 45.8535 45.8535 36.6654 45.8535 25.3707V25.2738C45.8535 13.9791 36.6654 4.7909 25.3706 4.7909H25.2737Z" fill="#E2E7F0"/>
<path d="M27.5224 22.5101V26.9754H33.0463L32.1716 32.9906H27.5224V46.8491C26.5903 46.9784 25.6366 47.0459 24.6685 47.0459C23.5511 47.0459 22.4538 46.9569 21.3852 46.7845V32.9906H16.2908V26.9754H21.3852V21.5119C21.3852 18.1223 24.1328 15.3733 27.5238 15.3733V15.3762C27.5339 15.3762 27.5425 15.3733 27.5526 15.3733H33.0477V20.5755H29.4571C28.3899 20.5755 27.5238 21.4415 27.5238 22.5087L27.5224 22.5101Z" fill="#E2E7F0"/>
</svg>
