<svg width="1440" height="700" viewBox="0 0 1440 700" fill="none" xmlns="http://www.w3.org/2000/svg">
<rect x="-57" y="4" width="242" height="100" fill="#EDF0F7"/>
<rect x="-57" y="4" width="242" height="100" stroke="#06A4FF" stroke-width="8"/>
<path d="M-37 24L165 84" stroke="#06A4FF" stroke-width="8"/>
<path d="M165 24L-37 84" stroke="#06A4FF" stroke-width="8"/>
<path d="M1353 502V647.5C1353 674.01 1331.51 695.5 1305 695.5H192C165.49 695.5 144 674.01 144 647.5L144 517" stroke="#06A4FF" stroke-width="8"/>
<g clip-path="url(#clip0_282_90)">
<circle cx="1354" cy="411" r="47" stroke="#06A4FF" stroke-width="6"/>
<mask id="path-6-inside-1_282_90" fill="white">
<path fill-rule="evenodd" clip-rule="evenodd" d="M1316.5 444.073V442.25C1316.5 429.781 1341.48 423.5 1354 423.5C1366.52 423.5 1391.5 429.781 1391.5 442.25V444.073C1382.34 454.453 1368.93 461 1354 461C1339.07 461 1325.66 454.453 1316.5 444.073ZM1354 381.833C1343.64 381.833 1335.25 390.224 1335.25 400.583C1335.25 410.943 1343.64 419.333 1354 419.333C1364.36 419.333 1372.75 410.943 1372.75 400.583C1372.75 390.224 1364.36 381.833 1354 381.833Z"/>
</mask>
<path fill-rule="evenodd" clip-rule="evenodd" d="M1316.5 444.073V442.25C1316.5 429.781 1341.48 423.5 1354 423.5C1366.52 423.5 1391.5 429.781 1391.5 442.25V444.073C1382.34 454.453 1368.93 461 1354 461C1339.07 461 1325.66 454.453 1316.5 444.073ZM1354 381.833C1343.64 381.833 1335.25 390.224 1335.25 400.583C1335.25 410.943 1343.64 419.333 1354 419.333C1364.36 419.333 1372.75 410.943 1372.75 400.583C1372.75 390.224 1364.36 381.833 1354 381.833Z" fill="#070707"/>
<path d="M1316.5 444.073H1311.5V445.964L1312.75 447.381L1316.5 444.073ZM1391.5 444.073L1395.25 447.381L1396.5 445.964V444.073H1391.5ZM1316.5 444.073H1321.5V442.25H1316.5H1311.5V444.073H1316.5ZM1316.5 442.25H1321.5C1321.5 440.969 1322.1 439.477 1323.99 437.734C1325.91 435.96 1328.82 434.283 1332.42 432.841C1339.62 429.953 1348.37 428.5 1354 428.5V423.5V418.5C1347.12 418.5 1337.11 420.188 1328.7 423.558C1324.49 425.244 1320.36 427.476 1317.21 430.386C1314.02 433.327 1311.5 437.296 1311.5 442.25H1316.5ZM1354 423.5V428.5C1359.63 428.5 1368.38 429.953 1375.58 432.841C1379.18 434.283 1382.09 435.96 1384.01 437.734C1385.9 439.477 1386.5 440.969 1386.5 442.25H1391.5H1396.5C1396.5 437.296 1393.98 433.327 1390.79 430.386C1387.64 427.476 1383.51 425.244 1379.3 423.558C1370.89 420.188 1360.88 418.5 1354 418.5V423.5ZM1391.5 442.25H1386.5V444.073H1391.5H1396.5V442.25H1391.5ZM1391.5 444.073L1387.75 440.764C1379.5 450.115 1367.44 456 1354 456V461V466C1370.43 466 1385.18 458.791 1395.25 447.381L1391.5 444.073ZM1354 461V456C1340.56 456 1328.5 450.115 1320.25 440.764L1316.5 444.073L1312.75 447.381C1322.82 458.791 1337.57 466 1354 466V461ZM1335.25 400.583H1340.25C1340.25 392.985 1346.4 386.833 1354 386.833V381.833V376.833C1340.88 376.833 1330.25 387.463 1330.25 400.583H1335.25ZM1354 419.333V414.333C1346.4 414.333 1340.25 408.181 1340.25 400.583H1335.25H1330.25C1330.25 413.704 1340.88 424.333 1354 424.333V419.333ZM1372.75 400.583H1367.75C1367.75 408.181 1361.6 414.333 1354 414.333V419.333V424.333C1367.12 424.333 1377.75 413.704 1377.75 400.583H1372.75ZM1354 381.833V386.833C1361.6 386.833 1367.75 392.985 1367.75 400.583H1372.75H1377.75C1377.75 387.463 1367.12 376.833 1354 376.833V381.833Z" fill="#06A4FF" mask="url(#path-6-inside-1_282_90)"/>
</g>
<path d="M146.828 134.172C145.266 132.609 142.734 132.609 141.172 134.172L115.716 159.627C114.154 161.19 114.154 163.722 115.716 165.284C117.278 166.846 119.81 166.846 121.373 165.284L144 142.657L166.627 165.284C168.19 166.846 170.722 166.846 172.284 165.284C173.846 163.722 173.846 161.19 172.284 159.627L146.828 134.172ZM144 516L148 516L148 137L144 137L140 137L140 516L144 516Z" fill="#06A4FF"/>
<path d="M1354 298H1358V173.8H1354H1350V298H1354ZM1430.8 97V101H1584V97V93H1430.8V97ZM1354 173.8H1358C1358 160.293 1358 150.403 1358.64 142.599C1359.27 134.843 1360.52 129.5 1362.8 125.024L1359.23 123.208L1355.67 121.392C1352.72 127.184 1351.34 133.697 1350.67 141.948C1350 150.153 1350 160.425 1350 173.8H1354ZM1430.8 97V93C1417.42 93 1407.15 92.9969 1398.95 93.6672C1390.7 94.3414 1384.18 95.7166 1378.39 98.6677L1380.21 102.232L1382.02 105.796C1386.5 103.515 1391.84 102.274 1399.6 101.641C1407.4 101.003 1417.29 101 1430.8 101V97ZM1359.23 123.208L1362.8 125.024C1367.01 116.745 1373.75 110.014 1382.02 105.796L1380.21 102.232L1378.39 98.6677C1368.61 103.653 1360.65 111.608 1355.67 121.392L1359.23 123.208Z" fill="#06A4FF"/>
<rect x="1340" y="298" width="28" height="28" rx="14" fill="#06A4FF"/>
<defs>
<clipPath id="clip0_282_90">
<rect width="100" height="100" fill="white" transform="translate(1304 361)"/>
</clipPath>
</defs>
</svg>
