<svg width="51" height="51" viewBox="0 0 51 51" fill="none" xmlns="http://www.w3.org/2000/svg">
<path d="M25.3344 47.3113H25.2377C13.1414 47.3113 3.30005 37.4612 3.30005 25.3541V25.2572C3.30005 13.1502 13.1414 3.30005 25.2377 3.30005H25.3344C37.4307 3.30005 47.2721 13.1502 47.2721 25.2572V25.3541C47.2721 37.4612 37.4307 47.3113 25.3344 47.3113ZM25.2377 4.78978C13.9615 4.78978 4.78846 13.971 4.78846 25.2572V25.3541C4.78846 36.6403 13.9615 45.8216 25.2377 45.8216H25.3344C36.6106 45.8216 45.7837 36.6403 45.7837 25.3541V25.2572C45.7837 13.971 36.6106 4.78978 25.3344 4.78978H25.2377Z" fill="#E2E7F0"/>
<path d="M30.8862 13.8298H18.2399C14.7462 13.8298 11.9039 16.6768 11.9039 20.1764V31.7652C11.9039 35.2648 14.7462 38.1118 18.2399 38.1118H30.8862C34.38 38.1118 37.2222 35.2648 37.2222 31.7652V20.1764C37.2222 16.6768 34.38 13.8298 30.8862 13.8298ZM14.1391 20.1764C14.1391 17.9117 15.979 16.0687 18.2399 16.0687H30.8862C33.1471 16.0687 34.9871 17.9117 34.9871 20.1764V31.7652C34.9871 34.0299 33.1471 35.8729 30.8862 35.8729H18.2399C15.979 35.8729 14.1391 34.0299 14.1391 31.7652V20.1764Z" fill="#E2E7F0"/>
<path d="M24.563 31.8727C27.8119 31.8727 30.4566 29.2251 30.4566 25.9693C30.4566 22.7135 27.8133 20.0659 24.563 20.0659C21.3127 20.0659 18.6694 22.7135 18.6694 25.9693C18.6694 29.2251 21.3127 31.8727 24.563 31.8727ZM24.563 22.3062C26.5805 22.3062 28.2214 23.9499 28.2214 25.9707C28.2214 27.9916 26.5805 29.6353 24.563 29.6353C22.5455 29.6353 20.9046 27.9916 20.9046 25.9707C20.9046 23.9499 22.5455 22.3062 24.563 22.3062Z" fill="#E2E7F0"/>
<path d="M31.0021 21.0198C31.877 21.0198 32.5901 20.307 32.5901 19.4292C32.5901 18.5515 31.8784 17.8386 31.0021 17.8386C30.1258 17.8386 29.4142 18.5515 29.4142 19.4292C29.4142 20.307 30.1258 21.0198 31.0021 21.0198Z" fill="#E2E7F0"/>
</svg>
