<svg width="51" height="51" viewBox="0 0 51 51" fill="none" xmlns="http://www.w3.org/2000/svg">
<path d="M25.3706 47.3443H25.2738C13.1576 47.3443 3.30005 37.4868 3.30005 25.3706V25.2738C3.30005 13.1576 13.1576 3.30005 25.2738 3.30005H25.3706C37.4868 3.30005 47.3443 13.1576 47.3443 25.2738V25.3706C47.3443 37.4868 37.4868 47.3443 25.3706 47.3443ZM25.2738 4.7909C13.979 4.7909 4.7909 13.979 4.7909 25.2738V25.3706C4.7909 36.6653 13.979 45.8535 25.2738 45.8535H25.3706C36.6653 45.8535 45.8535 36.6653 45.8535 25.3706V25.2738C45.8535 13.979 36.6653 4.7909 25.3706 4.7909H25.2738Z" fill="#E2E7F0"/>
<path d="M13.9168 19.1346C13.3767 18.6333 13.1082 18.0129 13.1082 17.2746C13.1082 16.5364 13.3782 15.8886 13.9168 15.3859C14.4568 14.8846 15.152 14.6333 16.0037 14.6333C16.8554 14.6333 17.5232 14.8846 18.0618 15.3859C18.6019 15.8872 18.8704 16.5177 18.8704 17.2746C18.8704 18.0315 18.6004 18.6333 18.0618 19.1346C17.5218 19.6358 16.8367 19.8872 16.0037 19.8872C15.1706 19.8872 14.4568 19.6358 13.9168 19.1346ZM18.4166 22.01V37.3781H13.5606V22.01H18.4166Z" fill="#E2E7F0"/>
<path d="M34.5817 23.5282C35.6403 24.6772 36.1688 26.2543 36.1688 28.2622V37.1067H31.557V28.8855C31.557 27.8729 31.2941 27.0859 30.7699 26.5257C30.2457 25.9656 29.539 25.6841 28.6543 25.6841C27.7695 25.6841 27.0629 25.9641 26.5386 26.5257C26.0144 27.0859 25.7515 27.8729 25.7515 28.8855V37.1067H21.1124V21.967H25.7515V23.9749C26.2212 23.3056 26.8546 22.777 27.6503 22.3878C28.446 21.9986 29.3408 21.8047 30.3361 21.8047C32.1085 21.8047 33.5246 22.3792 34.5817 23.5282Z" fill="#E2E7F0"/>
</svg>
