<svg width="53" height="51" viewBox="0 0 53 51" fill="none" xmlns="http://www.w3.org/2000/svg">
<path d="M26.2775 46.959H26.1815C14.1713 46.959 4.40002 37.1878 4.40002 25.1776V25.0815C4.40002 13.0713 14.1713 3.30005 26.1815 3.30005H26.2775C38.2877 3.30005 48.059 13.0713 48.059 25.0815V25.1776C48.059 37.1878 38.2877 46.959 26.2775 46.959ZM26.1815 4.77786C14.9856 4.77786 5.87784 13.8856 5.87784 25.0815V25.1776C5.87784 36.3735 14.9856 45.4812 26.1815 45.4812H26.2775C37.4734 45.4812 46.5812 36.3735 46.5812 25.1776V25.0815C46.5812 13.8856 37.4734 4.77786 26.2775 4.77786H26.1815Z" fill="#E2E7F0"/>
<path d="M13.4712 14.709L23.1778 27.1423L13.4108 37.2514H15.6096L24.1615 28.4012L31.0705 37.2514H38.5518L28.2995 24.1187L37.3912 14.709H35.1924L27.3174 22.8599L20.954 14.709H13.4727H13.4712ZM16.7038 16.2604H20.1399L35.3163 35.7001H31.8802L16.7038 16.2604Z" fill="#E2E7F0"/>
</svg>
