<svg width="51" height="51" viewBox="0 0 51 51" fill="none" xmlns="http://www.w3.org/2000/svg">
<path d="M25.3222 3.30019C13.1787 3.30019 3.30005 13.1788 3.30005 25.3223C3.30005 37.4658 13.1787 47.3445 25.3222 47.3445C37.4657 47.3445 47.3443 37.4658 47.3443 25.3223C47.3443 13.1788 37.4657 3.30019 25.3222 3.30019ZM25.3222 45.8495C14.0039 45.8495 4.795 36.6406 4.795 25.3223C4.795 14.0041 14.0039 4.79514 25.3222 4.79514C36.6405 4.79514 45.8494 14.0041 45.8494 25.3223C45.8494 36.6406 36.6405 45.8495 25.3222 45.8495Z" fill="#E2E7F0"/>
<path d="M37.5435 30.2538C37.3822 31.8107 37.0351 33.5317 35.7576 34.4362C34.7682 35.1376 33.4677 35.1635 32.2536 35.1621C29.6871 35.1606 27.1192 35.1577 24.5527 35.1563C22.0842 35.1534 19.6156 35.152 17.1471 35.1491C16.1159 35.1477 15.1135 35.2283 14.1558 34.7818C13.3334 34.3987 12.6896 33.67 12.3022 32.8592C11.765 31.7315 11.6527 30.454 11.5879 29.2068C11.4683 26.9355 11.4813 24.6585 11.6239 22.3888C11.729 20.7325 11.9954 18.902 13.2758 17.8463C14.4107 16.9116 16.0122 16.8655 17.4841 16.8641C22.1562 16.8598 26.8297 16.8554 31.5032 16.8526C32.1023 16.8511 32.7274 16.8626 33.3381 16.9289C34.5392 17.0585 35.6842 17.4027 36.4561 18.2928C37.2353 19.19 37.4355 20.4387 37.5536 21.6211C37.8416 24.4901 37.8387 27.3863 37.5435 30.2538ZM21.8509 21.9855V30.0291L28.8158 26.008L21.8509 21.9855Z" fill="#E2E7F0"/>
</svg>
